<?xml version="1.0" encoding="UTF-8"?>
<svg id="Layer_1" data-name="Layer 1" xmlns="http://www.w3.org/2000/svg" viewBox="0 0 2077.35 685.89">
  <defs>
    <style>
      .cls-1 {
        fill: #20a194;
        stroke-width: 0px;
      }
    </style>
  </defs>
  <g>
    <path class="cls-1" d="M772.74,453.92c-2.85-5.99-6.98-10.64-12.38-13.93-5.41-3.29-11.7-4.94-18.87-4.94s-13.64,1.65-19.39,4.94c-5.75,3.29-10.27,8.01-13.56,14.15-3.29,6.14-4.94,13.25-4.94,21.3s1.65,15.14,4.94,21.23c3.29,6.09,7.81,10.79,13.56,14.08,5.75,3.29,12.21,4.94,19.39,4.94,10.03,0,18.28-3,24.77-8.99,6.49-5.99,10.27-14.1,11.35-24.33h-40.99v-10.91h55.29v10.32c-.79,8.45-3.44,16.19-7.96,23.22-4.52,7.03-10.47,12.58-17.84,16.66-7.37,4.08-15.58,6.12-24.62,6.12-9.53,0-18.23-2.23-26.1-6.71-7.86-4.47-14.08-10.69-18.65-18.65-4.57-7.96-6.85-16.95-6.85-26.98s2.28-19.04,6.85-27.05c4.57-8.01,10.79-14.25,18.65-18.72,7.86-4.47,16.56-6.71,26.1-6.71,10.91,0,20.57,2.71,28.97,8.11,8.4,5.41,14.52,13.03,18.36,22.85h-16.07Z"/>
    <path class="cls-1" d="M861.33,526.9l-24.47-42.02h-16.22v42.02h-13.42v-102.76h33.17c7.76,0,14.32,1.33,19.68,3.98,5.36,2.65,9.36,6.24,12.02,10.76,2.65,4.52,3.98,9.68,3.98,15.48,0,7.08-2.04,13.32-6.12,18.72-4.08,5.41-10.2,8.99-18.36,10.76l25.8,43.05h-16.07ZM820.64,474.11h19.76c7.27,0,12.73-1.79,16.37-5.38,3.63-3.59,5.45-8.38,5.45-14.38s-1.79-10.81-5.38-14.15c-3.59-3.34-9.07-5.01-16.44-5.01h-19.76v38.92Z"/>
    <path class="cls-1" d="M912.12,521.22c-7.86-4.47-14.08-10.71-18.65-18.72-4.57-8.01-6.86-17.03-6.86-27.05s2.28-19.04,6.86-27.05c4.57-8.01,10.79-14.25,18.65-18.72,7.86-4.47,16.56-6.71,26.1-6.71s18.38,2.24,26.24,6.71c7.86,4.47,14.05,10.69,18.58,18.65,4.52,7.96,6.78,17.01,6.78,27.13s-2.26,19.17-6.78,27.13c-4.52,7.96-10.71,14.18-18.58,18.65-7.86,4.47-16.61,6.71-26.24,6.71s-18.23-2.24-26.1-6.71ZM957.61,511.27c5.75-3.34,10.27-8.11,13.56-14.3,3.29-6.19,4.94-13.37,4.94-21.53s-1.65-15.46-4.94-21.6c-3.29-6.14-7.79-10.89-13.49-14.23-5.7-3.34-12.19-5.01-19.46-5.01s-13.76,1.67-19.46,5.01c-5.7,3.34-10.2,8.09-13.49,14.23-3.29,6.14-4.94,13.34-4.94,21.6s1.65,15.33,4.94,21.53c3.29,6.19,7.81,10.96,13.56,14.3,5.75,3.34,12.21,5.01,19.39,5.01s13.64-1.67,19.39-5.01Z"/>
    <path class="cls-1" d="M1130.19,424.13l-29.78,102.76h-15.04l-23.89-82.71-24.77,82.71-14.89.15-28.75-102.91h14.3l22.41,87.13,24.77-87.13h15.04l23.59,86.84,22.56-86.84h14.45Z"/>
    <path class="cls-1" d="M1207.65,424.13v10.91h-28.01v91.85h-13.42v-91.85h-28.16v-10.91h69.59Z"/>
    <path class="cls-1" d="M1298.59,424.13v102.76h-13.42v-46.59h-52.34v46.59h-13.42v-102.76h13.42v45.11h52.34v-45.11h13.42Z"/>
    <path class="cls-1" d="M1420.73,475.51c-5.85,5.65-14.77,8.48-26.76,8.48h-19.76v42.9h-13.42v-102.76h33.17c11.6,0,20.42,2.8,26.46,8.4,6.05,5.6,9.07,12.83,9.07,21.67s-2.92,15.65-8.77,21.3ZM1410.49,468.07c3.54-3.24,5.31-7.86,5.31-13.86,0-12.68-7.27-19.02-21.82-19.02h-19.76v37.74h19.76c7.47,0,12.97-1.62,16.51-4.87Z"/>
    <path class="cls-1" d="M1492.83,504.04h-44.82l-8.26,22.85h-14.15l37.15-102.17h15.48l37.01,102.17h-14.15l-8.26-22.85ZM1489,493.13l-18.58-51.9-18.58,51.9h37.15Z"/>
    <path class="cls-1" d="M1580.98,526.9l-24.47-42.02h-16.22v42.02h-13.42v-102.76h33.17c7.76,0,14.32,1.33,19.68,3.98,5.36,2.65,9.36,6.24,12.02,10.76,2.65,4.52,3.98,9.68,3.98,15.48,0,7.08-2.04,13.32-6.12,18.72-4.08,5.41-10.2,8.99-18.36,10.76l25.8,43.05h-16.07ZM1540.29,474.11h19.76c7.27,0,12.73-1.79,16.36-5.38,3.63-3.59,5.46-8.38,5.46-14.38s-1.79-10.81-5.38-14.15c-3.59-3.34-9.07-5.01-16.44-5.01h-19.76v38.92Z"/>
    <path class="cls-1" d="M1673.23,424.13v10.91h-28.01v91.85h-13.42v-91.85h-28.16v-10.91h69.59Z"/>
    <path class="cls-1" d="M1765.78,526.9h-13.42l-53.96-81.83v81.83h-13.42v-102.91h13.42l53.96,81.68v-81.68h13.42v102.91Z"/>
    <path class="cls-1" d="M1800.09,435.04v34.35h37.45v11.06h-37.45v35.38h41.87v11.06h-55.29v-102.91h55.29v11.06h-41.87Z"/>
    <path class="cls-1" d="M1911.62,526.9l-24.47-42.02h-16.22v42.02h-13.42v-102.76h33.17c7.76,0,14.32,1.33,19.68,3.98,5.36,2.65,9.36,6.24,12.02,10.76,2.65,4.52,3.98,9.68,3.98,15.48,0,7.08-2.04,13.32-6.12,18.72-4.08,5.41-10.2,8.99-18.36,10.76l25.8,43.05h-16.07ZM1870.93,474.11h19.76c7.27,0,12.73-1.79,16.36-5.38,3.63-3.59,5.46-8.38,5.46-14.38s-1.79-10.81-5.38-14.15c-3.59-3.34-9.07-5.01-16.44-5.01h-19.76v38.92Z"/>
    <path class="cls-1" d="M1956.31,524.32c-5.36-2.41-9.56-5.75-12.61-10.03-3.05-4.27-4.62-9.21-4.72-14.82h14.3c.49,4.82,2.48,8.87,5.97,12.16,3.49,3.29,8.57,4.94,15.26,4.94s11.43-1.6,15.11-4.79c3.69-3.19,5.53-7.3,5.53-12.31,0-3.93-1.08-7.12-3.24-9.58-2.16-2.46-4.87-4.32-8.11-5.6-3.24-1.28-7.62-2.65-13.12-4.13-6.78-1.77-12.21-3.54-16.29-5.31-4.08-1.77-7.57-4.54-10.47-8.33-2.9-3.78-4.35-8.87-4.35-15.26,0-5.6,1.42-10.56,4.28-14.89,2.85-4.32,6.85-7.67,12.02-10.03,5.16-2.36,11.08-3.54,17.77-3.54,9.63,0,17.52,2.41,23.66,7.22,6.14,4.82,9.61,11.2,10.39,19.17h-14.74c-.49-3.93-2.56-7.39-6.19-10.39-3.64-3-8.45-4.5-14.45-4.5-5.6,0-10.17,1.45-13.71,4.35-3.54,2.9-5.31,6.96-5.31,12.16,0,3.74,1.06,6.78,3.17,9.14,2.11,2.36,4.72,4.15,7.81,5.38,3.1,1.23,7.45,2.63,13.05,4.2,6.78,1.87,12.24,3.71,16.36,5.53,4.13,1.82,7.67,4.62,10.62,8.4,2.95,3.78,4.42,8.92,4.42,15.41,0,5.01-1.33,9.73-3.98,14.15-2.65,4.42-6.59,8.01-11.79,10.76-5.21,2.75-11.35,4.13-18.43,4.13s-12.85-1.2-18.21-3.61Z"/>
  </g>
  <g>
    <polygon class="cls-1" points="324.47 491.64 355.33 491.64 339.81 445.78 324.47 491.64"/>
    <path class="cls-1" d="M68.64,73.85v538.18h538.18V73.85H68.64ZM367.16,526.87l-6.34-18.72h-42l-6.34,18.72h-23.37l37.11-102.55h27.49l37.1,102.55h-23.66ZM468.12,512.58c-2.89,4.64-7.15,8.39-12.67,11.15-5.57,2.78-12.27,4.2-19.92,4.2s-14.28-1.23-20.18-3.65c-5.82-2.38-10.53-5.95-14-10.61-3.13-4.2-4.94-9.27-5.38-15.09h24.18c.63,3.62,2.11,6.49,4.43,8.55,2.62,2.34,6.05,3.53,10.19,3.53s7.61-1.02,10.12-3.01c2.63-2.09,3.96-5,3.96-8.66,0-3.08-1.06-5.67-3.16-7.71-1.9-1.85-4.26-3.39-7.01-4.57-2.6-1.12-6.35-2.42-11.13-3.84-6.72-2.08-12.28-4.18-16.49-6.24-4.07-1.99-7.62-4.96-10.56-8.85-2.88-3.8-4.34-8.89-4.34-15.12,0-9.4,3.29-16.54,10.06-21.83,6.8-5.32,15.84-8.01,26.88-8.01s20.37,2.69,27.18,8.01c6.36,4.97,9.87,11.62,10.69,20.27h-24.56c-.5-3.15-1.91-5.73-4.2-7.67-2.62-2.23-5.99-3.35-10.01-3.35-3.53,0-6.45.98-8.67,2.91-2.29,1.99-3.46,4.83-3.46,8.46,0,4.05,1.91,7.24,5.67,9.47,3.31,1.97,8.51,4.1,15.44,6.35,6.73,2.28,12.27,4.48,16.45,6.54,4.02,1.99,7.55,4.92,10.5,8.72,2.87,3.7,4.33,8.58,4.33,14.5s-1.46,10.92-4.35,15.56ZM522.99,526.87h-23.46v-75.64h-14.95v-26.92h38.4v102.55Z"/>
  </g>
</svg>